<?xml version="1.0" encoding="utf-8"?>
<!-- Generator: Adobe Illustrator 19.0.0, SVG Export Plug-In . SVG Version: 6.00 Build 0)  -->
<svg version="1.1" id="Layer_1" xmlns="http://www.w3.org/2000/svg" xmlns:xlink="http://www.w3.org/1999/xlink" x="0px" y="0px"
	 width="189px" height="44px" viewBox="0 0 189 44" style="enable-background:new 0 0 189 44;" xml:space="preserve">
<style type="text/css">
	.st0{enable-background:new    ;}
	.st1{fill:#010101;}
</style>
<g id="XMLID_15_" class="st0">
	<path id="XMLID_16_" class="st1" d="M19.9,28.7c-1.1,1.6-2.4,2.8-4,3.5c-1.6,0.7-3.3,1.1-5.2,1.1c-1.6,0-3.1-0.3-4.4-0.8
		C5,31.9,3.9,31.1,3,30.1c-0.9-1-1.7-2.2-2.2-3.5C0.3,25.3,0,23.7,0,22.1c0-1.6,0.3-3.1,0.8-4.4C1.3,16.3,2,15.2,3,14.2
		c0.9-1,2.1-1.8,3.4-2.3c1.3-0.6,2.7-0.8,4.3-0.8c1.6,0,3.1,0.3,4.3,0.8c1.2,0.6,2.3,1.3,3.1,2.2c0.8,0.9,1.5,2,1.9,3.2
		c0.4,1.2,0.6,2.4,0.6,3.6v1.9H2.8c0,0.6,0.1,1.3,0.3,2.2c0.2,0.9,0.6,1.8,1.3,2.6c0.6,0.9,1.4,1.6,2.5,2.2c1,0.6,2.3,0.9,4,0.9
		c1.4,0,2.8-0.3,4.1-1c1.3-0.7,2.3-1.6,3-2.8L19.9,28.7z M17.8,20.3c0-0.9-0.2-1.8-0.6-2.7c-0.4-0.8-0.9-1.6-1.6-2.2
		c-0.7-0.6-1.4-1.1-2.3-1.5c-0.9-0.4-1.9-0.6-2.9-0.6c-1.5,0-2.7,0.3-3.7,0.9c-1,0.6-1.8,1.3-2.4,2.1c-0.6,0.8-1,1.6-1.2,2.3
		c-0.2,0.8-0.4,1.3-0.4,1.5H17.8z"/>
	<path id="XMLID_19_" class="st1" d="M43.2,23.8c0,1,0,2,0,2.8c0,0.8,0,1.6,0.1,2.3c0,0.7,0.1,1.4,0.1,2s0.1,1.2,0.2,1.8H41
		c-0.2-1-0.3-2.2-0.3-3.4h-0.1c-0.8,1.4-1.8,2.4-3,3c-1.2,0.6-2.7,1-4.5,1c-0.9,0-1.8-0.1-2.7-0.3c-0.9-0.2-1.7-0.6-2.4-1.1
		c-0.7-0.5-1.3-1.2-1.7-2c-0.4-0.8-0.7-1.8-0.7-2.9c0-1.6,0.4-2.9,1.2-3.9s1.8-1.7,3.1-2.1c1.2-0.5,2.5-0.8,3.9-0.9
		c1.4-0.1,2.6-0.2,3.6-0.2h3.2v-1.3c0-1.8-0.6-3.2-1.7-3.9c-1.1-0.8-2.6-1.2-4.3-1.2c-2.4,0-4.6,0.8-6.5,2.4L26.7,14
		c1-1,2.3-1.7,3.8-2.2c1.5-0.5,2.9-0.8,4.3-0.8c2.6,0,4.6,0.6,6.2,1.8c1.5,1.2,2.3,3.2,2.3,5.9V23.8z M37.7,22.1
		c-1.2,0-2.3,0.1-3.4,0.2c-1.1,0.2-2.1,0.4-2.9,0.8s-1.6,0.9-2.1,1.5c-0.5,0.6-0.8,1.4-0.8,2.3c0,0.6,0.1,1.2,0.4,1.7
		c0.3,0.5,0.7,0.9,1.1,1.2c0.5,0.3,1,0.6,1.5,0.7c0.6,0.2,1.1,0.3,1.7,0.3c1.5,0,2.7-0.2,3.6-0.6c0.9-0.4,1.7-1,2.3-1.7
		c0.6-0.7,1-1.5,1.2-2.3c0.2-0.9,0.3-1.8,0.3-2.6v-1.4H37.7z"/>
	<path id="XMLID_22_" class="st1" d="M50.6,27.3c0.6,1.1,1.4,2,2.6,2.6c1.1,0.6,2.3,0.9,3.6,0.9c0.6,0,1.2-0.1,1.7-0.3
		c0.6-0.2,1.1-0.4,1.6-0.8s0.8-0.7,1.1-1.2c0.3-0.5,0.4-1,0.4-1.6c0-1-0.3-1.7-0.9-2.2c-0.6-0.5-1.4-0.9-2.3-1.1s-1.9-0.5-3-0.7
		c-1.1-0.2-2.1-0.5-3-0.9s-1.7-1-2.3-1.7c-0.6-0.7-0.9-1.8-0.9-3.1c0-1,0.2-1.9,0.6-2.7c0.4-0.8,1-1.4,1.7-1.9s1.5-0.9,2.3-1.1
		c0.9-0.2,1.7-0.4,2.6-0.4c1.7,0,3.3,0.3,4.5,1c1.3,0.6,2.3,1.7,3,3l-2.5,1.5c-0.5-1-1.2-1.7-2-2.2s-1.8-0.8-3.1-0.8
		c-0.5,0-1,0.1-1.5,0.2c-0.5,0.2-1,0.4-1.4,0.6c-0.4,0.3-0.8,0.6-1.1,1.1c-0.3,0.4-0.4,0.9-0.4,1.5c0,0.9,0.3,1.7,0.9,2.1
		c0.6,0.5,1.4,0.8,2.3,1.1c0.9,0.3,1.9,0.5,3,0.7s2.1,0.5,3,0.9s1.7,1,2.3,1.8c0.6,0.8,0.9,1.9,0.9,3.3c0,1.1-0.2,2.1-0.6,2.9
		c-0.4,0.8-1,1.5-1.7,2c-0.7,0.6-1.5,1-2.5,1.2s-1.9,0.4-2.9,0.4c-1.8,0-3.5-0.4-5-1.1S49,30.4,48.2,29L50.6,27.3z"/>
	<path id="XMLID_24_" class="st1" d="M76.1,39.3c-0.5,1.4-1.2,2.5-2.2,3.3c-0.9,0.8-2.1,1.2-3.7,1.2c-0.5,0-0.9,0-1.4-0.1
		c-0.5-0.1-0.9-0.2-1.3-0.3l0.3-2.6c0.4,0.1,0.8,0.2,1.2,0.3c0.4,0.1,0.8,0.2,1.3,0.2c0.5,0,0.9-0.1,1.3-0.3c0.4-0.2,0.7-0.5,1-0.8
		s0.5-0.7,0.7-1.1c0.2-0.4,0.4-0.8,0.5-1.3l1.9-4.9l-8.6-21.3h3.1l7,17.9l6.8-17.9H87L76.1,39.3z"/>
	<path id="XMLID_26_" class="st1" d="M92.1,0.2H96l19.8,28.5h0.1V0.2h3v32.5H115L95.3,4.3h-0.1v28.5h-3V0.2z"/>
	<path id="XMLID_28_" class="st1" d="M125.9,22.1c0-1.6,0.3-3.1,0.8-4.5c0.6-1.4,1.3-2.5,2.3-3.5c1-1,2.2-1.8,3.5-2.3
		c1.4-0.6,2.9-0.8,4.5-0.8s3.1,0.3,4.5,0.8c1.4,0.6,2.5,1.3,3.5,2.3c1,1,1.8,2.2,2.3,3.5c0.6,1.4,0.8,2.9,0.8,4.5s-0.3,3.1-0.8,4.5
		c-0.6,1.4-1.3,2.5-2.3,3.5c-1,1-2.2,1.8-3.5,2.3s-2.9,0.8-4.5,0.8s-3.1-0.3-4.5-0.8s-2.6-1.3-3.5-2.3c-1-1-1.7-2.2-2.3-3.5
		C126.1,25.3,125.9,23.8,125.9,22.1z M128.6,22.1c0,1.2,0.2,2.3,0.6,3.4c0.4,1.1,0.9,2,1.7,2.8s1.6,1.4,2.7,1.9s2.2,0.7,3.5,0.7
		c1.3,0,2.4-0.2,3.5-0.7c1-0.5,1.9-1.1,2.7-1.9s1.3-1.7,1.7-2.8s0.6-2.2,0.6-3.4c0-1.2-0.2-2.3-0.6-3.4s-0.9-2-1.7-2.8
		s-1.6-1.4-2.7-1.9c-1-0.5-2.2-0.7-3.5-0.7c-1.3,0-2.4,0.2-3.5,0.7s-1.9,1.1-2.7,1.9s-1.3,1.7-1.7,2.8
		C128.8,19.8,128.6,20.9,128.6,22.1z"/>
	<path id="XMLID_31_" class="st1" d="M164.7,14h-6.1v13.8c0,0.9,0.3,1.7,0.8,2.2s1.2,0.8,2.2,0.8c0.5,0,1-0.1,1.6-0.2
		c0.5-0.1,1-0.3,1.5-0.5l0.2,2.5c-0.5,0.2-1.1,0.4-1.8,0.5c-0.7,0.2-1.3,0.2-1.8,0.2c-1,0-1.8-0.1-2.5-0.4c-0.7-0.3-1.3-0.7-1.7-1.2
		c-0.4-0.5-0.7-1.1-0.9-1.7c-0.2-0.7-0.3-1.4-0.3-2.1V14h-4.6v-2.5h4.6V5.4h2.8v6.1h6.1V14z"/>
	<path id="XMLID_33_" class="st1" d="M188.3,28.7c-1.1,1.6-2.4,2.8-4,3.5s-3.3,1.1-5.2,1.1c-1.6,0-3.1-0.3-4.4-0.8s-2.4-1.3-3.4-2.3
		c-0.9-1-1.7-2.2-2.2-3.5c-0.5-1.4-0.8-2.9-0.8-4.5c0-1.6,0.3-3.1,0.8-4.4c0.5-1.3,1.3-2.5,2.2-3.5c0.9-1,2.1-1.8,3.4-2.3
		c1.3-0.6,2.7-0.8,4.3-0.8c1.6,0,3.1,0.3,4.3,0.8c1.2,0.6,2.3,1.3,3.1,2.2c0.8,0.9,1.5,2,1.9,3.2c0.4,1.2,0.6,2.4,0.6,3.6v1.9h-17.8
		c0,0.6,0.1,1.3,0.3,2.2c0.2,0.9,0.6,1.8,1.3,2.6s1.4,1.6,2.5,2.2c1,0.6,2.3,0.9,4,0.9c1.4,0,2.8-0.3,4.1-1c1.3-0.7,2.3-1.6,3-2.8
		L188.3,28.7z M186.2,20.3c0-0.9-0.2-1.8-0.6-2.7s-0.9-1.6-1.6-2.2c-0.7-0.6-1.4-1.1-2.3-1.5c-0.9-0.4-1.9-0.6-2.9-0.6
		c-1.5,0-2.7,0.3-3.7,0.9c-1,0.6-1.8,1.3-2.4,2.1c-0.6,0.8-1,1.6-1.2,2.3c-0.2,0.8-0.4,1.3-0.4,1.5H186.2z"/>
</g>
</svg>
